
<svg width="26px" height="26px" viewBox="0 0 26 26" version="1.1" xmlns="http://www.w3.org/2000/svg" xmlns:xlink="http://www.w3.org/1999/xlink">
    <!-- Generator: Sketch 43.2 (39069) - http://www.bohemiancoding.com/sketch -->
    <desc>Created with Sketch.</desc>
    <defs></defs>
      <g id="Menu-X">
          <g>
              <path d="M0.707307424,2.20974226 L23.721006,25.2097423 C24.110301,25.5988056 24.7391249,25.5964413 25.1255233,25.2044614 C25.5119218,24.8124816 25.5095737,24.179321 25.1202787,23.7902577 L2.10658015,0.790257738 C1.71728511,0.401194428 1.08846127,0.403558731 0.702062774,0.795538559 C0.315664282,1.18751839 0.318012392,1.82067895 0.707307424,2.20974226 Z" id="Line"></path>
              <path d="M2.10658015,25.2097423 L25.1202787,2.20974226 C25.5095737,1.82067895 25.5119218,1.18751839 25.1255233,0.795538559 C24.7391249,0.403558731 24.110301,0.401194428 23.721006,0.790257738 L0.707307424,23.7902577 C0.318012392,24.179321 0.315664282,24.8124816 0.702062774,25.2044614 C1.08846127,25.5964413 1.71728511,25.5988056 2.10658015,25.2097423 Z" id="Line"></path>
          </g>
      </g>
</svg>
