<svg width="38px" height="34px" viewBox="0 0 38 34" version="1.1" xmlns="http://www.w3.org/2000/svg" xmlns:xlink="http://www.w3.org/1999/xlink">
    <!-- Generator: Sketch 43.2 (39069) - http://www.bohemiancoding.com/sketch -->
    <desc>Created with Sketch.</desc>
    <defs></defs>
      <g id="Logo">
          <path d="M4.744,33.6376787 C2.332,33.6376787 1,32.1963164 1,29.4243164 L0.967569628,12.9793631 C0.96756683,12.9786538 0.96756543,12.9779442 0.96756543,12.9772344 C0.96756543,10.5652344 2.40756543,9.23323438 5.17956543,9.23323438 L17.52,9.23323438 L17.52,7.212 C17.52,5.772 17.052,5.16 16.08,5.16 C15.504,5.16 15,4.692 15,4.08 C15,3.468 15.504,3 16.08,3 C18.492,3 19.824,4.44 19.824,7.212 L19.824,9.23323438 L33.7231819,9.23323438 C36.1351823,9.23323438 37.4671823,10.6732344 37.4671823,13.4452344 L37.2400296,29.6097783 C37.23604,32.3056787 35.79604,33.6376787 33.02404,33.6376787 L4.744,33.6376787 Z M4.744,31.4763164 L33.02404,31.3336787 C34.46404,31.3336787 35.07604,30.8656787 35.07604,29.8936787 C35.07604,29.8916395 35.0760536,29.8896009 35.0760807,29.8875629 L35.1853638,13.4452344 C35.1853638,12.0052344 34.6951823,11.5372344 33.7231823,11.5372344 L5.17956543,11.5372344 C3.73956543,11.5372344 3.12756543,12.4012344 3.12756543,12.9772344 L3.304,29.4243164 C3.304,30.8643164 3.772,31.4763164 4.744,31.4763164 Z" id="Combined-Shape"></path>
          <path d="M14,1.9 C13.3927966,1.9 12.9,2.39279664 12.9,3 C12.9,3.60815273 13.392123,4.1 14,4.1 C14.607877,4.1 15.1,3.60815273 15.1,3 C15.1,2.39279664 14.6072034,1.9 14,1.9 Z M14,5.9 C12.3982363,5.9 11.1,4.60249121 11.1,3 C11.1,1.39868409 12.3986841,0.1 14,0.1 C15.6013159,0.1 16.9,1.39868409 16.9,3 C16.9,4.60249121 15.6017637,5.9 14,5.9 Z" id="Stroke-11" fill-rule="nonzero"></path>
          <path d="M16.2591797,22.5224609 C16.2591797,25.0055548 18.7852984,26.9 21.7958984,26.9 C24.8064985,26.9 27.3326172,25.0055548 27.3326172,22.5224609 C27.3326172,22.0254047 26.9296735,21.6224609 26.4326172,21.6224609 C25.9355609,21.6224609 25.5326172,22.0254047 25.5326172,22.5224609 C25.5326172,23.8805172 23.9065167,25.1 21.7958984,25.1 C19.6852802,25.1 18.0591797,23.8805172 18.0591797,22.5224609 C18.0591797,22.0254047 17.656236,21.6224609 17.1591797,21.6224609 C16.6621234,21.6224609 16.2591797,22.0254047 16.2591797,22.5224609 Z" id="Stroke-3" fill-rule="nonzero"></path>
          <path d="M18.3183594,17.8857422 C18.316041,18.5244502 17.7978877,19.0426035 17.1591797,19.0449219 C16.5181533,19.0426035 16,18.5244502 16,17.8857422 C16,17.2447158 16.5181533,16.7265625 17.1591797,16.7265625 C17.7978877,16.7265625 18.316041,17.2447158 18.3183594,17.8857422" id="Fill-5"></path>
          <path d="M27.5917969,17.8857422 C27.5894785,18.5244502 27.0713252,19.0426035 26.4326172,19.0449219 C25.7915908,19.0426035 25.2734375,18.5244502 25.2734375,17.8857422 C25.2734375,17.2447158 25.7915908,16.7265625 26.4326172,16.7265625 C27.0713252,16.7265625 27.5894785,17.2447158 27.5917969,17.8857422" id="Fill-5"></path>
      </g>
</svg>
