
<svg width="29px" height="25px" viewBox="0 0 29 25" version="1.1" xmlns="http://www.w3.org/2000/svg" xmlns:xlink="http://www.w3.org/1999/xlink">
    <!-- Generator: Sketch 43.2 (39069) - http://www.bohemiancoding.com/sketch -->
    <desc>Created with Sketch.</desc>
    <defs></defs>
        <g id="Menu-Icon">
            <path d="M27.5,2.55351296e-14 L1.47999954,4.17443857e-14 C0.900100555,4.2105636e-14 0.429999542,0.470101013 0.429999542,1.05 C0.429999542,1.62989899 0.900100555,2.1 1.47999954,2.1 L27.5,2.1 C28.079899,2.1 28.55,1.62989899 28.55,1.05 C28.55,0.470101013 28.079899,2.51738793e-14 27.5,2.55351296e-14 Z" id="Line"></path>
            <path d="M27.5,11 L1.47999954,11 C0.900100555,11 0.429999542,11.470101 0.429999542,12.05 C0.429999542,12.629899 0.900100555,13.1 1.47999954,13.1 L27.5,13.1 C28.079899,13.1 28.55,12.629899 28.55,12.05 C28.55,11.470101 28.079899,11 27.5,11 Z" id="Line"></path>
            <path d="M27.5,22 L1.47999954,22 C0.900100555,22 0.429999542,22.470101 0.429999542,23.05 C0.429999542,23.629899 0.900100555,24.1 1.47999954,24.1 L27.5,24.1 C28.079899,24.1 28.55,23.629899 28.55,23.05 C28.55,22.470101 28.079899,22 27.5,22 Z" id="Line"></path>
        </g>
</svg>
